<mxfile host="65bd71144e">
    <diagram id="AwBsZeiw2DnN0DO_UF-v" name="Page-1">
        <mxGraphModel dx="250" dy="458" grid="1" gridSize="10" guides="1" tooltips="1" connect="1" arrows="1" fold="1" page="1" pageScale="1" pageWidth="850" pageHeight="1100" background="#ffffff" math="0" shadow="0">
            <root>
                <mxCell id="0"/>
                <mxCell id="1" parent="0"/>
                <mxCell id="2" value="Ask two interger values to users.&lt;br&gt;num_males and num_females;&lt;br&gt;&lt;span style=&quot;background-color: initial; color: rgb(156, 220, 254);&quot;&gt;num_males&lt;/span&gt;&lt;span style=&quot;color: rgb(212, 212, 212); background-color: initial;&quot;&gt; = &lt;/span&gt;&lt;span style=&quot;background-color: initial; color: rgb(78, 201, 176);&quot;&gt;int&lt;/span&gt;&lt;span style=&quot;color: rgb(212, 212, 212); background-color: initial;&quot;&gt; (&lt;/span&gt;&lt;span style=&quot;background-color: initial; color: rgb(220, 220, 170);&quot;&gt;input&lt;/span&gt;&lt;span style=&quot;color: rgb(212, 212, 212); background-color: initial;&quot;&gt;(&lt;/span&gt;&lt;span style=&quot;background-color: initial; color: rgb(206, 145, 120);&quot;&gt;&quot;Enter number of male students: &quot;&lt;/span&gt;&lt;span style=&quot;color: rgb(212, 212, 212); background-color: initial;&quot;&gt;))&lt;/span&gt;&lt;br&gt;&lt;div style=&quot;color: rgb(212, 212, 212); line-height: 18px;&quot;&gt;&lt;div style=&quot;&quot;&gt;    &lt;span style=&quot;color: rgb(156, 220, 254);&quot;&gt;num_females&lt;/span&gt; = &lt;span style=&quot;color: rgb(78, 201, 176);&quot;&gt;int&lt;/span&gt; (&lt;span style=&quot;color: rgb(220, 220, 170);&quot;&gt;input&lt;/span&gt;(&lt;span style=&quot;color: rgb(206, 145, 120);&quot;&gt;&quot;Enter number of female students: &quot;&lt;/span&gt;))&lt;/div&gt;&lt;/div&gt;" style="rounded=0;whiteSpace=wrap;html=1;" vertex="1" parent="1">
                    <mxGeometry x="210" y="90" width="510" height="100" as="geometry"/>
                </mxCell>
                <mxCell id="6" value="Calculate the total number of students.&lt;br&gt;total = num_males + num_females;&lt;br&gt;&lt;div style=&quot;color: rgb(212, 212, 212); line-height: 18px;&quot;&gt;&lt;span style=&quot;color: rgb(156, 220, 254);&quot;&gt;totalstudents&lt;/span&gt; = &lt;span style=&quot;color: rgb(156, 220, 254);&quot;&gt;num_males&lt;/span&gt; + &lt;span style=&quot;color: rgb(156, 220, 254);&quot;&gt;num_female&lt;span style=&quot;background-color: rgb(30, 30, 30);&quot;&gt;s&lt;/span&gt;&lt;/span&gt;&lt;/div&gt;" style="rounded=0;whiteSpace=wrap;html=1;" vertex="1" parent="1">
                    <mxGeometry x="210" y="310" width="510" height="100" as="geometry"/>
                </mxCell>
                <mxCell id="7" value="Calculate the percentage of males and females.&lt;br&gt;&lt;div style=&quot;color: rgb(212, 212, 212); line-height: 18px;&quot;&gt;&lt;span style=&quot;color: rgb(156, 220, 254);&quot;&gt;m_perc&lt;/span&gt; = (&lt;span style=&quot;color: rgb(156, 220, 254);&quot;&gt;num_males&lt;/span&gt;/&lt;span style=&quot;color: rgb(156, 220, 254);&quot;&gt;totalstudents&lt;/span&gt;)*&lt;span style=&quot;color: rgb(181, 206, 168);&quot;&gt;100&lt;/span&gt;&lt;/div&gt;&lt;div style=&quot;color: rgb(212, 212, 212); line-height: 18px;&quot;&gt;&lt;div style=&quot;line-height: 18px;&quot;&gt;&lt;span style=&quot;color: rgb(156, 220, 254);&quot;&gt;f_perc&lt;/span&gt; = (&lt;span style=&quot;color: rgb(156, 220, 254);&quot;&gt;num_females&lt;/span&gt;/&lt;span style=&quot;color: rgb(156, 220, 254);&quot;&gt;totalstudents&lt;/span&gt;)*&lt;span style=&quot;color: rgb(181, 206, 168);&quot;&gt;100&lt;/span&gt;&lt;/div&gt;&lt;/div&gt;" style="rounded=0;whiteSpace=wrap;html=1;" vertex="1" parent="1">
                    <mxGeometry x="210" y="530" width="510" height="100" as="geometry"/>
                </mxCell>
                <mxCell id="9" value="" style="shape=singleArrow;direction=south;whiteSpace=wrap;html=1;labelBackgroundColor=#18141D;fontFamily=Helvetica;" vertex="1" parent="1">
                    <mxGeometry x="447.5" y="640" width="35" height="100" as="geometry"/>
                </mxCell>
                <mxCell id="10" value="Print the number of male and female students;&lt;br&gt;&lt;div style=&quot;line-height: 18px;&quot;&gt;&lt;div style=&quot;color: rgb(212, 212, 212);&quot;&gt; &lt;span style=&quot;color: #dcdcaa;&quot;&gt;print&lt;/span&gt;(&lt;span style=&quot;color: #ce9178;&quot;&gt;&quot;Number of male students: &quot;&lt;/span&gt;, &lt;span style=&quot;color: #9cdcfe;&quot;&gt;num_males&lt;/span&gt;)&lt;/div&gt;&lt;div style=&quot;color: rgb(212, 212, 212);&quot;&gt;    &lt;span style=&quot;color: rgb(220, 220, 170);&quot;&gt;print&lt;/span&gt;(&lt;span style=&quot;color: rgb(206, 145, 120);&quot;&gt;&quot;Number of female students: &quot;&lt;/span&gt;, &lt;span style=&quot;color: rgb(156, 220, 254);&quot;&gt;num_females&lt;/span&gt;)&lt;/div&gt;&lt;div style=&quot;&quot;&gt;&lt;span style=&quot;color: rgb(212, 212, 212); background-color: initial;&quot;&gt;&amp;nbsp;&lt;/span&gt;&lt;span style=&quot;background-color: initial; color: rgb(220, 220, 170);&quot;&gt;print&lt;/span&gt;&lt;span style=&quot;color: rgb(212, 212, 212); background-color: initial;&quot;&gt;(&lt;/span&gt;&lt;span style=&quot;background-color: initial; color: rgb(206, 145, 120);&quot;&gt;&quot;Number of total students: &quot;&lt;/span&gt;&lt;span style=&quot;color: rgb(212, 212, 212); background-color: initial;&quot;&gt;, &lt;/span&gt;&lt;span style=&quot;background-color: initial; color: rgb(156, 220, 254);&quot;&gt;totalstudents&lt;/span&gt;&lt;span style=&quot;color: rgb(212, 212, 212); background-color: initial;&quot;&gt;)&lt;/span&gt;&lt;br&gt;&lt;/div&gt;&lt;div style=&quot;&quot;&gt;&lt;span style=&quot;background-color: initial; color: rgb(220, 220, 170);&quot;&gt;print&lt;/span&gt;&lt;span style=&quot;background-color: initial;&quot;&gt;(&lt;/span&gt;&lt;span style=&quot;background-color: initial; color: rgb(206, 145, 120);&quot;&gt;&quot;Percent of male students: &quot;&lt;/span&gt;&lt;span style=&quot;background-color: initial;&quot;&gt;, (&lt;/span&gt;&lt;span style=&quot;background-color: initial; color: rgb(220, 220, 170);&quot;&gt;format&lt;/span&gt;&lt;span style=&quot;background-color: initial;&quot;&gt;(&lt;/span&gt;&lt;span style=&quot;background-color: initial; color: rgb(156, 220, 254);&quot;&gt;m_perc&lt;/span&gt;&lt;span style=&quot;background-color: initial;&quot;&gt;, &lt;/span&gt;&lt;span style=&quot;background-color: initial; color: rgb(206, 145, 120);&quot;&gt;'.2f'&lt;/span&gt;&lt;span style=&quot;background-color: initial;&quot;&gt;)))&lt;/span&gt;&lt;br&gt;&lt;/div&gt;&lt;div style=&quot;&quot;&gt;&lt;div style=&quot;color: rgb(212, 212, 212); line-height: 18px;&quot;&gt;&lt;div style=&quot;line-height: 18px;&quot;&gt;&lt;span style=&quot;color: rgb(220, 220, 170);&quot;&gt;print&lt;/span&gt;(&lt;span style=&quot;color: rgb(206, 145, 120);&quot;&gt;&quot;Percent of female students: &quot;&lt;/span&gt;, (&lt;span style=&quot;color: rgb(220, 220, 170);&quot;&gt;format&lt;/span&gt;(&lt;span style=&quot;color: rgb(156, 220, 254);&quot;&gt;f_perc&lt;/span&gt;, &lt;span style=&quot;color: rgb(206, 145, 120);&quot;&gt;'.2f'&lt;/span&gt;&lt;span style=&quot;color: rgb(240, 240, 240); background-color: initial;&quot;&gt;)))&lt;/span&gt;&lt;/div&gt;&lt;/div&gt;&lt;/div&gt;&lt;/div&gt;" style="rounded=0;whiteSpace=wrap;html=1;" vertex="1" parent="1">
                    <mxGeometry x="210" y="750" width="510" height="170" as="geometry"/>
                </mxCell>
                <mxCell id="11" style="edgeStyle=none;html=1;fontFamily=Helvetica;" edge="1" parent="1" source="10" target="10">
                    <mxGeometry relative="1" as="geometry">
                        <Array as="points">
                            <mxPoint x="640" y="880"/>
                        </Array>
                    </mxGeometry>
                </mxCell>
                <mxCell id="12" value="" style="shape=singleArrow;direction=south;whiteSpace=wrap;html=1;labelBackgroundColor=#18141D;fontFamily=Helvetica;" vertex="1" parent="1">
                    <mxGeometry x="447.5" y="420" width="35" height="100" as="geometry"/>
                </mxCell>
                <mxCell id="13" value="" style="shape=singleArrow;direction=south;whiteSpace=wrap;html=1;labelBackgroundColor=#18141D;fontFamily=Helvetica;" vertex="1" parent="1">
                    <mxGeometry x="447.5" y="200" width="35" height="100" as="geometry"/>
                </mxCell>
                <mxCell id="17" value="End" style="ellipse;whiteSpace=wrap;html=1;labelBackgroundColor=none;fontFamily=Helvetica;fontSize=26;" vertex="1" parent="1">
                    <mxGeometry x="405" y="960" width="120" height="50" as="geometry"/>
                </mxCell>
                <mxCell id="21" value="Start" style="ellipse;whiteSpace=wrap;html=1;labelBackgroundColor=none;fontFamily=Helvetica;fontSize=26;" vertex="1" parent="1">
                    <mxGeometry x="405" width="120" height="50" as="geometry"/>
                </mxCell>
                <mxCell id="26" value="" style="shape=singleArrow;direction=south;whiteSpace=wrap;html=1;labelBackgroundColor=#18141D;fontFamily=Helvetica;" vertex="1" parent="1">
                    <mxGeometry x="447.5" y="50" width="35" height="40" as="geometry"/>
                </mxCell>
                <mxCell id="28" value="" style="shape=singleArrow;direction=south;whiteSpace=wrap;html=1;labelBackgroundColor=#18141D;fontFamily=Helvetica;" vertex="1" parent="1">
                    <mxGeometry x="447.5" y="920" width="35" height="40" as="geometry"/>
                </mxCell>
            </root>
        </mxGraphModel>
    </diagram>
</mxfile>